HIERARCHY
ROOT Hips
{
 OFFSET 0.000000 0.000000 0.000000
 CHANNELS 6 Xposition Yposition Zposition Yrotation Xrotation Zrotation
 JOINT Chest
 {
  OFFSET 0.000000 9.588913 -0.003946
  CHANNELS 3 Yrotation Xrotation Zrotation
  JOINT Chest2
  {
   OFFSET 0.000000 9.541882 0.008053
   CHANNELS 3 Yrotation Xrotation Zrotation
   JOINT Chest3
   {
    OFFSET 0.000000 9.501360 0.000000
    CHANNELS 3 Yrotation Xrotation Zrotation
    JOINT Chest4
    {
     OFFSET 0.000000 9.491660 0.000000
     CHANNELS 3 Yrotation Xrotation Zrotation
     JOINT Neck
     {
      OFFSET 0.000000 14.331917 0.000000
      CHANNELS 3 Yrotation Xrotation Zrotation
      JOINT Head
      {
       OFFSET 0.000000 8.884799 0.017034
       CHANNELS 3 Yrotation Xrotation Zrotation
       End Site
       {
        OFFSET 0.000000 16.896195 0.008993
       }
      }
     }
     JOINT RightCollar
     {
      OFFSET -2.923010 9.499495 0.000000
      CHANNELS 3 Yrotation Xrotation Zrotation
      JOINT RightShoulder
      {
       OFFSET -13.795216 0.000000 0.000000
       CHANNELS 3 Yrotation Xrotation Zrotation
       JOINT RightElbow
       {
        OFFSET -30.272209 0.000000 0.000000
        CHANNELS 3 Yrotation Xrotation Zrotation
        JOINT RightWrist
        {
         OFFSET -24.478199 0.000000 0.000000
         CHANNELS 3 Yrotation Xrotation Zrotation
         End Site
         {
          OFFSET -18.090752 0.000000 0.000000
         }
        }
       }
      }
     }
     JOINT LeftCollar
     {
      OFFSET 2.923010 9.499495 0.000000
      CHANNELS 3 Yrotation Xrotation Zrotation
      JOINT LeftShoulder
      {
       OFFSET 13.795216 0.000000 0.000000
       CHANNELS 3 Yrotation Xrotation Zrotation
       JOINT LeftElbow
       {
        OFFSET 30.272209 0.000000 0.000000
        CHANNELS 3 Yrotation Xrotation Zrotation
        JOINT LeftWrist
        {
         OFFSET 24.478199 0.000000 0.000000
         CHANNELS 3 Yrotation Xrotation Zrotation
         End Site
         {
          OFFSET 18.090752 0.000000 0.000000
         }
        }
       }
      }
     }
    }
   }
  }
 }
 JOINT RightHip
 {
  OFFSET -7.826875 0.019532 0.001973
  CHANNELS 3 Yrotation Xrotation Zrotation
  JOINT RightKnee
  {
   OFFSET 0.000000 -40.546152 -0.001885
   CHANNELS 3 Yrotation Xrotation Zrotation
   JOINT RightAnkle
   {
    OFFSET 0.000000 -39.417092 -0.003189
    CHANNELS 3 Yrotation Xrotation Zrotation
    JOINT RightToe
    {
     OFFSET 0.000000 -7.579396 17.243563
     CHANNELS 3 Yrotation Xrotation Zrotation
     End Site
     {
      OFFSET 0.000000 -1.500329 6.694466
     }
    }
   }
  }
 }
 JOINT LeftHip
 {
  OFFSET 7.826875 0.019532 0.001973
  CHANNELS 3 Yrotation Xrotation Zrotation
  JOINT LeftKnee
  {
   OFFSET 0.000000 -40.546152 -0.001885
   CHANNELS 3 Yrotation Xrotation Zrotation
   JOINT LeftAnkle
   {
    OFFSET 0.000000 -39.417092 -0.003189
    CHANNELS 3 Yrotation Xrotation Zrotation
    JOINT LeftToe
    {
     OFFSET 0.000000 -7.579396 17.243563
     CHANNELS 3 Yrotation Xrotation Zrotation
     End Site
     {
      OFFSET 0.000000 -1.500329 6.694466
     }
    }
   }
  }
 }
}
MOTION
Frames: 16
Frame Time: 0.008333
0.000000 87.345680 0.000000 0.000000 -5.767889 0.000000 0.000000 11.653876 0.000000 0.000000 -5.885988 0.000000 0.000000 -0.000000 0.000000 0.000000 -0.000000 0.000000 0.000000 12.528808 0.000000 0.000000 0.711711 0.000000 0.000000 -0.000000 0.000000 0.000000 -0.000000 0.000000 2.309063 -0.000000 0.000000 -2.309063 -0.000000 -0.000000 0.000000 -0.000000 0.000000 0.000000 0.000000 0.000000 -2.309063 0.000000 0.000000 2.309063 -0.000000 0.000000 0.000000 8.520374 0.000000 0.000000 1.905768 0.000000 -0.000000 -4.658254 0.000000 0.000000 -0.000000 0.000000 0.000000 8.520374 0.000000 0.000000 1.905768 0.000000 -0.000000 -4.658254 0.000000 0.000000 -0.000000 0.000000
-12.566113 49.613774 -21.013760 53.748823 -36.179432 -4.510140 0.368829 14.359776 3.527342 0.114651 8.212777 1.676532 0.181821 10.265168 2.103723 0.114651 8.212777 1.676532 -3.581607 14.407653 -3.074516 -3.086243 -10.540611 -2.433705 -6.178115 2.260997 -5.782304 -0.042889 -2.182902 86.241395 70.443612 3.684034 12.764881 -2.323567 -6.624526 -22.343393 -2.011143 0.552716 1.357524 4.415029 0.677731 -85.122102 -63.072617 -0.761007 -34.327337 -7.759424 -0.093601 39.273384 0.927670 -47.647796 -8.665251 -153.638607 74.668560 -149.307322 -6.896264 -16.993854 4.852860 -0.214500 0.625965 -0.100337 10.170154 -52.068669 -2.823268 138.100816 69.468137 152.094278 1.873755 -17.221427 -3.703993 -0.098333 -0.633733 -0.048511
-12.566585 49.613328 -21.014257 53.754137 -36.174184 -4.510739 0.366399 14.356690 3.525170 0.115264 8.212581 1.676392 0.182585 10.264919 2.103561 0.115264 8.212581 1.676392 -3.588484 14.393341 -3.080488 -3.092364 -10.555353 -2.438615 -6.170556 2.264037 -5.795189 -0.040706 -2.170587 86.238292 70.448945 3.669251 12.772804 -2.317653 -6.624077 -22.350838 -2.029578 0.556398 1.357347 4.428836 0.688447 -85.115494 -63.081845 -0.772350 -34.338721 -7.771394 -0.094591 39.285387 0.928716 -47.654306 -8.667511 -153.642746 74.667637 -149.311944 -6.904577 -16.991048 4.855805 -0.210878 0.625591 -0.098053 10.175446 -52.074556 -2.835856 138.101740 69.470660 152.099352 1.879768 -17.216839 -3.702487 -0.100908 -0.635054 -0.050094
-12.566459 49.613276 -21.014672 53.758936 -36.172748 -4.509580 0.363576 14.355599 3.522215 0.115682 8.212976 1.676129 0.183106 10.265411 2.103241 0.115682 8.212976 1.676129 -3.592339 14.381400 -3.089942 -3.094487 -10.567618 -2.447898 -6.164832 2.267313 -5.807372 -0.041361 -2.162306 86.233076 70.450318 3.656290 12.785954 -2.307029 -6.621717 -22.357011 -2.045707 0.562704 1.358084 4.442568 0.695955 -85.111173 -63.090796 -0.782020 -34.348809 -7.786469 -0.091364 39.296293 0.928205 -47.656807 -8.669223 -153.647093 74.666927 -149.318992 -6.915093 -16.989310 4.859555 -0.208261 0.625682 -0.096280 10.180944 -52.074696 -2.847857 138.098729 69.473331 152.099963 1.883241 -17.214914 -3.701758 -0.101932 -0.634818 -0.050844
-12.565957 49.613743 -21.014443 53.760376 -36.176434 -4.508905 0.363676 14.360074 3.520500 0.115579 8.214335 1.675842 0.182976 10.267111 2.102883 0.115579 8.214335 1.675842 -3.592949 14.369940 -3.101155 -3.092743 -10.579420 -2.459762 -6.157167 2.267902 -5.815096 -0.045213 -2.157677 86.222303 70.449392 3.644509 12.802432 -2.293755 -6.623179 -22.363382 -2.057092 0.568278 1.361017 4.456418 0.698961 -85.111380 -63.100803 -0.785013 -34.357384 -7.801162 -0.086050 39.306896 0.924973 -47.654180 -8.666431 -153.643621 74.665591 -149.321319 -6.918213 -16.987052 4.864436 -0.209989 0.624749 -0.096412 10.182953 -52.070626 -2.851188 138.099147 69.472258 152.101467 1.884942 -17.215825 -3.699339 -0.103631 -0.635635 -0.052192
-12.565716 49.614178 -21.013864 53.758848 -36.179900 -4.510111 0.366208 14.366217 3.520853 0.115123 8.216377 1.675533 0.182407 10.269666 2.102488 0.115123 8.216377 1.675533 -3.591353 14.358956 -3.112969 -3.088496 -10.590759 -2.472744 -6.147984 2.264795 -5.818698 -0.049551 -2.154331 86.204869 70.449033 3.632446 12.821241 -2.282864 -6.628552 -22.369023 -2.064886 0.569553 1.366026 4.471969 0.701975 -85.111962 -63.112097 -0.784490 -34.368141 -7.814873 -0.079268 39.316758 0.920951 -47.652225 -8.660452 -153.640638 74.664691 -149.322962 -6.917071 -16.983287 4.867798 -0.211427 0.622678 -0.097010 10.181147 -52.069394 -2.845189 138.104933 69.468463 152.105139 1.885362 -17.217154 -3.694135 -0.106668 -0.638047 -0.053953
-12.565514 49.614370 -21.013475 53.759266 -36.181405 -4.512872 0.367369 14.371150 3.521494 0.114557 8.218573 1.674973 0.181696 10.272413 2.101778 0.114557 8.218573 1.674973 -3.588811 14.349479 -3.124476 -3.083297 -10.600544 -2.485603 -6.140048 2.259645 -5.821803 -0.051647 -2.151125 86.187318 70.448953 3.621637 12.841036 -2.275479 -6.637513 -22.377670 -2.070104 0.567609 1.371949 4.486332 0.708210 -85.108570 -63.123032 -0.785719 -34.380093 -7.827344 -0.074713 39.323706 0.918916 -47.651210 -8.658313 -153.644854 74.664478 -149.327906 -6.915068 -16.980887 4.869454 -0.211156 0.621383 -0.097127 10.178961 -52.070004 -2.838710 138.107959 69.465799 152.107114 1.882855 -17.219139 -3.690614 -0.107216 -0.639081 -0.053456
-12.565173 49.614243 -21.013541 53.762183 -36.180640 -4.515497 0.367249 14.372890 3.521063 0.114499 8.220386 1.674309 0.181617 10.274680 2.100946 0.114499 8.220386 1.674309 -3.586701 14.342805 -3.134542 -3.078871 -10.607408 -2.496827 -6.136975 2.255552 -5.825936 -0.051863 -2.147706 86.174704 70.447963 3.613660 12.861380 -2.267447 -6.647425 -22.392365 -2.075835 0.564050 1.377777 4.496936 0.716977 -85.103907 -63.130217 -0.787881 -34.390083 -7.839668 -0.074339 39.329646 0.921311 -47.651673 -8.662646 -153.654738 74.664658 -149.336235 -6.912116 -16.979087 4.871737 -0.212162 0.620603 -0.097337 10.180565 -52.072159 -2.839826 138.106980 69.464809 152.109150 1.881160 -17.219341 -3.691142 -0.105853 -0.640042 -0.051164
-12.564647 49.613768 -21.014171 53.766030 -36.177563 -4.516004 0.366601 14.371833 3.518468 0.115221 8.221393 1.673673 0.182512 10.275936 2.100167 0.115221 8.221393 1.673673 -3.585605 14.340293 -3.142278 -3.076031 -10.609932 -2.505340 -6.136467 2.254819 -5.830943 -0.054572 -2.143949 86.165580 70.446894 3.606773 12.882012 -2.258907 -6.655163 -22.404622 -2.085002 0.560127 1.382610 4.504955 0.725544 -85.102198 -63.134032 -0.788594 -34.398155 -7.853857 -0.073446 39.339691 0.926058 -47.655562 -8.670640 -153.665367 74.663694 -149.346450 -6.910842 -16.976184 4.875590 -0.214628 0.618992 -0.097747 10.185310 -52.076562 -2.849318 138.103014 69.464061 152.110422 1.881379 -17.215643 -3.693955 -0.104484 -0.642840 -0.049305
-12.563827 49.613316 -21.014816 53.771543 -36.175567 -4.516508 0.365291 14.372351 3.515574 0.116135 8.221739 1.673252 0.183651 10.276365 2.099661 0.116135 8.221739 1.673252 -3.585208 14.341184 -3.147982 -3.074376 -10.608912 -2.511526 -6.134326 2.256599 -5.837816 -0.060929 -2.140058 86.159062 70.445723 3.602894 12.899844 -2.250825 -6.662823 -22.412235 -2.097377 0.555924 1.385065 4.510908 0.733366 -85.102715 -63.137762 -0.787099 -34.403222 -7.868467 -0.070550 39.355119 0.925479 -47.658005 -8.676600 -153.671675 74.661707 -149.353628 -6.911828 -16.976463 4.876388 -0.214656 0.619129 -0.096320 10.186968 -52.079100 -2.859462 138.099819 69.463436 152.111426 1.883694 -17.212169 -3.697230 -0.104894 -0.645004 -0.048511
-12.563098 49.612967 -21.015065 53.775429 -36.174979 -4.517722 0.366755 14.374336 3.515508 0.116958 8.221947 1.672967 0.184677 10.276622 2.099323 0.116958 8.221947 1.672967 -3.585377 14.343992 -3.151595 -3.073777 -10.605908 -2.515353 -6.133241 2.259221 -5.846473 -0.065450 -2.137166 86.156225 70.442632 3.605103 12.913033 -2.240572 -6.670344 -22.421259 -2.112010 0.551833 1.384875 4.514277 0.740690 -85.103277 -63.144137 -0.782323 -34.403926 -7.879176 -0.069024 39.371750 0.920495 -47.657976 -8.679556 -153.675327 74.661112 -149.357203 -6.910871 -16.979722 4.871807 -0.211793 0.621589 -0.093533 10.184601 -52.079767 -2.863292 138.103656 69.463210 152.116678 1.888383 -17.212129 -3.700440 -0.107401 -0.645042 -0.047978
-12.562690 49.612585 -21.015124 53.773835 -36.174216 -4.516566 0.373644 14.375524 3.517150 0.118341 8.222269 1.672432 0.186398 10.277017 2.098684 0.118341 8.222269 1.672432 -3.587122 14.348804 -3.152106 -3.075537 -10.600823 -2.515522 -6.135929 2.261716 -5.854569 -0.064475 -2.134858 86.157071 70.439606 3.610177 12.919602 -2.229313 -6.674254 -22.432112 -2.129061 0.549455 1.385313 4.515752 0.745830 -85.103321 -63.153061 -0.776464 -34.402579 -7.884864 -0.068975 39.386149 0.918161 -47.659551 -8.682160 -153.677687 74.661414 -149.359540 -6.907248 -16.980050 4.866851 -0.210299 0.622501 -0.092282 10.183495 -52.080649 -2.861822 138.110575 69.462658 152.123042 1.890152 -17.214757 -3.703604 -0.108839 -0.643876 -0.046676
-12.566184 49.612334 -21.011161 53.728531 -36.173353 -4.521294 0.424920 14.372976 3.551643 0.120221 8.222451 1.671557 0.188736 10.277238 2.097632 0.120221 8.222451 1.671557 -3.589680 14.355865 -3.149809 -3.078774 -10.593415 -2.512510 -6.140561 2.264751 -5.861485 -0.059630 -2.132148 86.161375 70.437994 3.615794 12.919547 -2.218307 -6.676691 -22.444371 -2.148376 0.548697 1.388757 4.516189 0.749409 -85.101977 -63.161591 -0.773871 -34.400066 -7.889851 -0.069688 39.398342 0.917287 -47.666659 -8.636811 -153.683559 74.661006 -149.365630 -6.882900 -16.991847 4.867870 -0.234657 0.633883 -0.103040 10.178798 -52.089478 -2.809195 138.113663 69.462505 152.125048 1.911098 -17.200267 -3.701477 -0.131964 -0.658247 -0.055848
-12.562557 49.611701 -21.015836 53.771173 -36.168903 -4.509420 0.387490 14.372553 3.515374 0.121838 8.222163 1.670412 0.190735 10.276870 2.096232 0.121838 8.222163 1.670412 -3.591084 14.364033 -3.146673 -3.080948 -10.584884 -2.508848 -6.143615 2.268347 -5.868999 -0.053471 -2.127056 86.167837 70.434788 3.620177 12.917000 -2.204548 -6.680830 -22.457120 -2.167729 0.550471 1.392587 4.516957 0.750907 -85.095701 -63.169631 -0.775688 -34.399773 -7.896653 -0.075000 39.411466 0.922627 -47.672204 -8.691818 -153.690124 74.658940 -149.371260 -6.916555 -16.969272 4.861593 -0.202649 0.615925 -0.089465 10.193038 -52.084454 -2.868852 138.112618 69.464120 152.124047 1.888075 -17.220076 -3.702284 -0.111003 -0.638869 -0.047438
-12.563263 49.611213 -21.016327 53.772956 -36.162726 -4.507868 0.389332 14.367648 3.513644 0.122866 8.221488 1.668920 0.191986 10.276023 2.094385 0.122866 8.221488 1.668920 -3.591006 14.371715 -3.144271 -3.081372 -10.576881 -2.506289 -6.141978 2.271737 -5.876792 -0.045947 -2.119141 86.174660 70.429790 3.620725 12.912728 -2.189799 -6.683957 -22.467602 -2.182943 0.555021 1.394580 4.518740 0.750517 -85.083603 -63.177958 -0.782127 -34.405014 -7.903782 -0.083734 39.425052 0.923691 -47.681506 -8.694962 -153.687774 74.656801 -149.366478 -6.925527 -16.964498 4.858398 -0.194387 0.613829 -0.086514 10.200989 -52.091016 -2.877181 138.109977 69.466519 152.123294 1.887912 -17.218256 -3.697645 -0.112306 -0.637879 -0.050068
-12.564072 49.611168 -21.016449 53.775769 -36.158516 -4.508605 0.389329 14.364275 3.511645 0.123850 8.220936 1.667246 0.193178 10.275330 2.092309 0.123850 8.220936 1.667246 -3.590142 14.378137 -3.142202 -3.080880 -10.570209 -2.504258 -6.137769 2.276092 -5.881911 -0.036446 -2.112623 86.180595 70.427943 3.619692 12.905770 -2.181397 -6.685478 -22.473857 -2.193257 0.560078 1.397152 4.520781 0.750117 -85.070744 -63.183368 -0.790299 -34.414425 -7.913499 -0.091701 39.435375 0.921563 -47.685052 -8.695282 -153.681604 74.657693 -149.358055 -6.931717 -16.965485 4.855991 -0.190145 0.616703 -0.084604 10.206413 -52.096059 -2.882323 138.102783 69.467894 152.117890 1.887016 -17.215743 -3.691901 -0.114203 -0.637737 -0.052859
